<svg width="22" height="16" viewBox="0 0 22 16" fill="none" xmlns="http://www.w3.org/2000/svg">
<path d="M21.5 7.93398C21.5 7.88242 21.5 7.82383 21.4977 7.75586C21.4953 7.56602 21.4906 7.35273 21.4859 7.12539C21.4672 6.47148 21.4344 5.81992 21.3828 5.20586C21.3125 4.35977 21.2094 3.6543 21.0687 3.12461C20.9204 2.57183 20.6295 2.06769 20.2252 1.66257C19.8209 1.25745 19.3173 0.965538 18.7648 0.816015C18.1016 0.63789 16.8031 0.527734 14.975 0.459766C14.1055 0.426953 13.175 0.405859 12.2445 0.39414C11.9187 0.389453 11.6164 0.387109 11.3445 0.384766H10.6555C10.3836 0.387109 10.0812 0.389453 9.75547 0.39414C8.825 0.405859 7.89453 0.426953 7.025 0.459766C5.19687 0.530078 3.89609 0.640234 3.23516 0.816015C2.6825 0.965171 2.17876 1.25696 1.7744 1.66214C1.37004 2.06732 1.07928 2.57165 0.93125 3.12461C0.788281 3.6543 0.6875 4.35977 0.617188 5.20586C0.565625 5.81992 0.532812 6.47148 0.514062 7.12539C0.507031 7.35273 0.504687 7.56602 0.502344 7.75586C0.502344 7.82383 0.5 7.88242 0.5 7.93398V8.06523C0.5 8.1168 0.5 8.17539 0.502344 8.24336C0.504687 8.4332 0.509375 8.64648 0.514062 8.87383C0.532812 9.52773 0.565625 10.1793 0.617188 10.7934C0.6875 11.6395 0.790625 12.3449 0.93125 12.8746C1.23125 13.9973 2.1125 14.8832 3.23516 15.1832C3.89609 15.3613 5.19687 15.4715 7.025 15.5395C7.89453 15.5723 8.825 15.5934 9.75547 15.6051C10.0812 15.6098 10.3836 15.6121 10.6555 15.6145H11.3445C11.6164 15.6121 11.9187 15.6098 12.2445 15.6051C13.175 15.5934 14.1055 15.5723 14.975 15.5395C16.8031 15.4691 18.1039 15.359 18.7648 15.1832C19.8875 14.8832 20.7687 13.9996 21.0687 12.8746C21.2117 12.3449 21.3125 11.6395 21.3828 10.7934C21.4344 10.1793 21.4672 9.52773 21.4859 8.87383C21.493 8.64648 21.4953 8.4332 21.4977 8.24336C21.4977 8.17539 21.5 8.1168 21.5 8.06523V7.93398V7.93398ZM19.8125 8.05586C19.8125 8.10508 19.8125 8.15898 19.8102 8.22227C19.8078 8.40508 19.8031 8.60664 19.7984 8.82461C19.782 9.44805 19.7492 10.0715 19.7 10.6504C19.6367 11.4051 19.5477 12.0238 19.4375 12.4387C19.2922 12.9801 18.8656 13.409 18.3266 13.552C17.8344 13.6832 16.5945 13.7887 14.9094 13.852C14.0562 13.8848 13.1375 13.9059 12.2211 13.9176C11.9 13.9223 11.6023 13.9246 11.3352 13.9246H10.6648L9.77891 13.9176C8.8625 13.9059 7.94609 13.8848 7.09063 13.852C5.40547 13.7863 4.16328 13.6832 3.67344 13.552C3.13437 13.4066 2.70781 12.9801 2.5625 12.4387C2.45234 12.0238 2.36328 11.4051 2.3 10.6504C2.25078 10.0715 2.22031 9.44805 2.20156 8.82461C2.19453 8.60664 2.19219 8.40273 2.18984 8.22227C2.18984 8.15898 2.1875 8.10273 2.1875 8.05586V7.94336C2.1875 7.89414 2.1875 7.84023 2.18984 7.77695C2.19219 7.59414 2.19688 7.39258 2.20156 7.17461C2.21797 6.55117 2.25078 5.92773 2.3 5.34883C2.36328 4.59414 2.45234 3.97539 2.5625 3.56055C2.70781 3.01914 3.13437 2.59023 3.67344 2.44727C4.16562 2.31602 5.40547 2.21055 7.09063 2.14727C7.94375 2.11445 8.8625 2.09336 9.77891 2.08164C10.1 2.07695 10.3977 2.07461 10.6648 2.07461H11.3352L12.2211 2.08164C13.1375 2.09336 14.0539 2.11445 14.9094 2.14727C16.5945 2.21289 17.8367 2.31602 18.3266 2.44727C18.8656 2.59258 19.2922 3.01914 19.4375 3.56055C19.5477 3.97539 19.6367 4.59414 19.7 5.34883C19.7492 5.92773 19.7797 6.55117 19.7984 7.17461C19.8055 7.39258 19.8078 7.59648 19.8102 7.77695C19.8102 7.84023 19.8125 7.89648 19.8125 7.94336V8.05586ZM8.91406 11.1402L14.3516 7.97617L8.91406 4.85898V11.1402Z" fill="#A9A9A5"/>
</svg>
