<svg width="93" height="69" viewBox="0 0 93 69" fill="none" xmlns="http://www.w3.org/2000/svg">
<path d="M29.8673 51.7347C29.9348 51.971 29.9686 52.1904 29.9686 52.393C29.9686 52.5618 29.9011 52.7474 29.766 52.9499C29.6648 53.1525 29.5298 53.3212 29.361 53.4563C29.0234 53.7263 28.6521 53.8613 28.2471 53.8613C27.4369 53.8613 26.8968 53.5238 26.6268 52.8487L24.1458 46.5702H10.323L7.84199 52.8487C7.6057 53.5238 7.13313 53.8613 6.42427 53.8613C5.68165 53.8613 5.15844 53.5575 4.85465 52.9499C4.75338 52.7474 4.70275 52.5618 4.70275 52.393C4.70275 52.1904 4.7365 51.971 4.80401 51.7347L14.0698 29.0512C14.7112 27.2959 15.4876 26.317 16.399 26.1145C16.669 26.047 16.9728 26.0132 17.3103 26.0132C18.0192 26.0132 18.5424 26.1482 18.88 26.4183C19.5213 26.9921 20.0614 27.8698 20.5002 29.0512L29.8673 51.7347ZM11.3357 43.9373H23.1838L17.2597 28.8993L11.3357 43.9373Z" fill="#FDFEF8"/>
<path d="M17.5739 29.7966L11.816 44.0871C11.4179 45.2078 10.6634 45.7282 9.55233 45.6482C8.50862 45.5731 7.84828 44.9848 7.57132 43.8831L2.09163 27.77C2.02999 27.5289 2.00121 27.324 2.00528 27.1553C2.01017 26.9528 2.04831 26.7696 2.11972 26.6057C2.2248 26.4443 2.3463 26.3009 2.48423 26.1756C2.76009 25.925 3.08319 25.8131 3.45354 25.8397C4.26158 25.8979 4.75805 26.2885 4.94297 27.0117L9.83616 42.2714L15.487 28.2267C15.8817 27.241 16.6347 26.7881 17.7457 26.868C18.8568 26.948 19.5853 27.5075 19.9312 28.5465L24.6875 43.1878L30.1941 28.8285C30.4806 28.1393 30.9437 27.8176 31.5834 27.8637C31.9874 27.8927 32.3376 28.0531 32.6341 28.3449C32.9306 28.6367 33.0752 28.9344 33.0679 29.2381C33.0614 29.5081 33.0216 29.7588 32.9486 29.9901L26.6612 45.2566C26.3321 46.3147 25.6289 46.8049 24.5515 46.7274C23.4405 46.6475 22.781 46.0254 22.573 44.8611L17.5739 29.7966Z" fill="#FDFEF8"/>
<path d="M46.4 37.0807L44.27 31.5107C44.1167 31.1307 43.9633 30.6507 43.81 30.0707C43.7367 30.3573 43.66 30.624 43.58 30.8707C43.5067 31.1173 43.4333 31.3373 43.36 31.5307L41.24 37.0807H46.4ZM50.61 42.4307H48.97C48.7833 42.4307 48.63 42.384 48.51 42.2907C48.39 42.1973 48.3033 42.0773 48.25 41.9307L46.98 38.6007H40.65L39.38 41.9307C39.3333 42.0573 39.2467 42.174 39.12 42.2807C38.9933 42.3807 38.84 42.4307 38.66 42.4307H37.02L42.74 28.0707H44.89L50.61 42.4307ZM60.2184 32.2707V42.4307H59.0484C58.7818 42.4307 58.6084 42.3007 58.5284 42.0407L58.3884 41.0207C58.1684 41.254 57.9384 41.4673 57.6984 41.6607C57.4584 41.854 57.2018 42.0207 56.9284 42.1607C56.6551 42.294 56.3651 42.3973 56.0584 42.4707C55.7518 42.5507 55.4218 42.5907 55.0684 42.5907C54.5084 42.5907 54.0151 42.4973 53.5884 42.3107C53.1684 42.124 52.8151 41.864 52.5284 41.5307C52.2418 41.1907 52.0251 40.784 51.8784 40.3107C51.7318 39.8373 51.6584 39.314 51.6584 38.7407V32.2707H53.6184V38.7407C53.6184 39.4673 53.7851 40.034 54.1184 40.4407C54.4518 40.8407 54.9618 41.0407 55.6484 41.0407C56.1484 41.0407 56.6151 40.924 57.0484 40.6907C57.4818 40.4507 57.8884 40.124 58.2684 39.7107V32.2707H60.2184ZM66.1203 42.5907C65.3003 42.5907 64.667 42.3607 64.2203 41.9007C63.7803 41.4407 63.5603 40.784 63.5603 39.9307V33.8507H62.3803C62.267 33.8507 62.1703 33.8173 62.0903 33.7507C62.017 33.6773 61.9803 33.5707 61.9803 33.4307V32.6407L63.6303 32.4107L64.0703 29.3807C64.097 29.2673 64.147 29.1807 64.2203 29.1207C64.3003 29.054 64.4003 29.0207 64.5203 29.0207H65.5103V32.4307H68.3903V33.8507H65.5103V39.8007C65.5103 40.2007 65.607 40.5007 65.8003 40.7007C66.0003 40.894 66.2536 40.9907 66.5603 40.9907C66.7403 40.9907 66.8936 40.9673 67.0203 40.9207C67.1536 40.874 67.267 40.824 67.3603 40.7707C67.4536 40.7107 67.5336 40.6573 67.6003 40.6107C67.667 40.564 67.727 40.5407 67.7803 40.5407C67.847 40.5407 67.897 40.5573 67.9303 40.5907C67.9703 40.6173 68.0103 40.664 68.0503 40.7307L68.6303 41.6707C68.3103 41.964 67.9303 42.1907 67.4903 42.3507C67.0503 42.5107 66.5936 42.5907 66.1203 42.5907ZM72.1364 33.5607C72.5631 33.1273 73.0331 32.7773 73.5464 32.5107C74.0664 32.244 74.6631 32.1107 75.3364 32.1107C75.8964 32.1107 76.3864 32.204 76.8064 32.3907C77.2331 32.5773 77.5897 32.8407 77.8764 33.1807C78.1631 33.514 78.3797 33.9173 78.5264 34.3907C78.6731 34.864 78.7464 35.3873 78.7464 35.9607V42.4307H76.7864V35.9607C76.7864 35.234 76.6197 34.6707 76.2864 34.2707C75.9531 33.864 75.4431 33.6607 74.7564 33.6607C74.2564 33.6607 73.7864 33.7807 73.3464 34.0207C72.9131 34.254 72.5097 34.574 72.1364 34.9807V42.4307H70.1864V27.6707H72.1364V33.5607ZM83.7225 42.4307H81.5825V28.0707H83.7225V42.4307ZM89.7531 42.5907C88.9331 42.5907 88.2998 42.3607 87.8531 41.9007C87.4131 41.4407 87.1931 40.784 87.1931 39.9307V33.8507H86.0131C85.8998 33.8507 85.8031 33.8173 85.7231 33.7507C85.6498 33.6773 85.6131 33.5707 85.6131 33.4307V32.6407L87.2631 32.4107L87.7031 29.3807C87.7298 29.2673 87.7798 29.1807 87.8531 29.1207C87.9331 29.054 88.0331 29.0207 88.1531 29.0207H89.1431V32.4307H92.0231V33.8507H89.1431V39.8007C89.1431 40.2007 89.2398 40.5007 89.4331 40.7007C89.6331 40.894 89.8865 40.9907 90.1931 40.9907C90.3731 40.9907 90.5265 40.9673 90.6531 40.9207C90.7865 40.874 90.8998 40.824 90.9931 40.7707C91.0865 40.7107 91.1665 40.6573 91.2331 40.6107C91.2998 40.564 91.3598 40.5407 91.4131 40.5407C91.4798 40.5407 91.5298 40.5573 91.5631 40.5907C91.6031 40.6173 91.6431 40.664 91.6831 40.7307L92.2631 41.6707C91.9431 41.964 91.5631 42.1907 91.1231 42.3507C90.6831 42.5107 90.2265 42.5907 89.7531 42.5907Z" fill="#FDFEF8"/>
</svg>
