<svg width="14" height="18" viewBox="0 0 14 18" fill="none" xmlns="http://www.w3.org/2000/svg">
<path d="M13.1109 3.44466H2.47758C2.3358 3.44265 2.1959 3.41195 2.06631 3.3544C1.93672 3.29686 1.82013 3.21366 1.72357 3.10983C1.62701 3.006 1.55248 2.88369 1.50447 2.75027C1.45647 2.61686 1.43598 2.4751 1.44424 2.33355C1.44355 2.05186 1.54988 1.78042 1.74172 1.57414C1.93355 1.36787 2.19658 1.24216 2.47758 1.22244H13.1109C13.2583 1.22244 13.3996 1.16391 13.5037 1.05972C13.6079 0.955534 13.6665 0.814226 13.6665 0.666884C13.6665 0.519541 13.6079 0.378233 13.5037 0.274047C13.3996 0.16986 13.2583 0.111328 13.1109 0.111328H2.47758C1.90179 0.131493 1.35634 0.374492 0.956271 0.789074C0.5562 1.20366 0.33278 1.75741 0.333133 2.33355C0.327758 2.42421 0.327758 2.51511 0.333133 2.60577C0.32778 2.65006 0.32778 2.69482 0.333133 2.73911V15.6669C0.33278 16.243 0.5562 16.7968 0.956271 17.2114C1.35634 17.6259 1.90179 17.8689 2.47758 17.8891H13.1109C13.2583 17.8891 13.3996 17.8306 13.5037 17.7264C13.6079 17.6222 13.6665 17.4809 13.6665 17.3336V4.03911C13.6668 3.88796 13.6095 3.74237 13.5063 3.63194C13.4031 3.52152 13.2617 3.45455 13.1109 3.44466ZM12.5554 16.778H2.47758C2.19658 16.7583 1.93355 16.6326 1.74172 16.4263C1.54988 16.22 1.44355 15.9486 1.44424 15.6669V4.30577C1.76013 4.48003 2.11697 4.56637 2.47758 4.55577H12.5554V16.778Z" fill="#FDFEF8"/>
</svg>
