<svg width="20" height="18" viewBox="0 0 20 18" fill="none" xmlns="http://www.w3.org/2000/svg">
<path d="M9.9998 3.075L11.7248 6.5625L12.0123 7.1875L12.6373 7.28125L16.4873 7.8375L13.7498 10.525L13.2811 10.9812L13.3936 11.6062L14.0498 15.4375L10.6061 13.6313L9.9998 13.375L9.41855 13.6812L5.9748 15.4625L6.5998 11.6312L6.7123 11.0062L6.2498 10.525L3.4873 7.80625L7.3373 7.25L7.9623 7.15625L8.2498 6.53125L9.9998 3.075ZM9.9998 0.25L7.15605 6.0125L0.799805 6.93125L5.3998 11.4188L4.3123 17.75L9.9998 14.7625L15.6873 17.75L14.5998 11.4188L19.1998 6.9375L12.8436 6.0125L9.9998 0.25Z" fill="#A9A9A5"/>
</svg>
